PathFileType	4	(X/Y/Z)	 s03c0102.trc
DataRate	CameraRate	NumFrames	NumMarkers	Units	OrigDataRate	OrigDataStartFrame	OrigNumFrames
200	200	6	52	mm	200	251	2000
Frame#	Time	racr			lacr			c7			jug			rlel			rdr			llel			ldr			s2			lic			ric			lasi			rasi			rpsi			lpsi			rgt			lgt			rth1			rth2			rth3			rth4			rlfc			rmfc			rsh1			rsh2			rsh3			rsh4			rlmal			rmmal			rcal			rtoe			rmt5			rmt1			lth1			lth2			lth4			lth3			llfc			lmfc			lsh1			lsh2			lsh3			lsh4			llmal			lmmal			lcal			ltoe			lmt1			lmt5			SBIKE			LBIKE			RBIKE			
		X1	Y1	Z1	X2	Y2	Z2	X3	Y3	Z3	X4	Y4	Z4	X5	Y5	Z5	X6	Y6	Z6	X7	Y7	Z7	X8	Y8	Z8	X9	Y9	Z9	X10	Y10	Z10	X11	Y11	Z11	X12	Y12	Z12	X13	Y13	Z13	X14	Y14	Z14	X15	Y15	Z15	X16	Y16	Z16	X17	Y17	Z17	X18	Y18	Z18	X19	Y19	Z19	X20	Y20	Z20	X21	Y21	Z21	X22	Y22	Z22	X23	Y23	Z23	X24	Y24	Z24	X25	Y25	Z25	X26	Y26	Z26	X27	Y27	Z27	X28	Y28	Z28	X29	Y29	Z29	X30	Y30	Z30	X31	Y31	Z31	X32	Y32	Z32	X33	Y33	Z33	X34	Y34	Z34	X35	Y35	Z35	X36	Y36	Z36	X37	Y37	Z37	X38	Y38	Z38	X39	Y39	Z39	X40	Y40	Z40	X41	Y41	Z41	X42	Y42	Z42	X43	Y43	Z43	X44	Y44	Z44	X45	Y45	Z45	X46	Y46	Z46	X47	Y47	Z47	X48	Y48	Z48	X49	Y49	Z49	X50	Y50	Z50	X51	Y51	Z51	X52	Y52	Z52	
251	1.2550	490.397085	1396.133395	-65.136436	475.099242	1405.257731	-377.804002	432.803665	1463.946880	-218.279705	455.228523	1296.091657	-217.555154	536.436053	1137.076432	34.117747	745.353470	941.752013	-24.527837	548.280190	1152.333584	-453.884096	753.369777	928.411952	-410.673069	-103.112557	1216.767186	-232.716363	91.008799	1205.452330	-408.657976	72.312355	1224.479040	-43.883166	91.068555	1126.784930	-377.434929	73.023141	1163.303511	-81.883795	-70.042082	1263.395971	-188.313745	-60.066705	1259.486385	-269.881190	-5.549212	1151.582376	-25.372125	7.934185	1106.699750	-429.662271	111.320902	1064.251184	3.303887	200.308484	1061.515663	7.426157	274.663814	1017.612286	9.170126	210.907151	1093.924923	-7.866329	395.480193	952.965832	-8.986583	410.658759	943.432146	-133.492470	333.646304	797.474711	-1.526842	318.647934	712.403924	-23.505819	261.083622	645.686869	-33.018219	345.732727	704.723522	-49.484843	203.940779	526.477303	-65.237169	228.729931	547.162609	-151.250752	143.273610	474.149602	-110.712374	451.190710	507.625449	-106.233469	335.049659	473.349482	-39.061435	360.156002	495.196546	-153.226682	76.825223	963.746682	-458.126721	138.001824	902.356813	-464.877202	169.727867	920.787459	-460.646947	162.269969	816.679378	-457.297609	242.333930	712.930474	-446.803333	254.269488	702.395325	-323.680882	154.587670	562.950931	-462.153558	143.180211	481.352346	-442.074361	86.626181	410.381506	-429.205844	172.897948	471.278708	-418.171898	29.296742	298.432481	-403.196710	68.083206	308.464443	-315.434265	-41.134326	264.080419	-352.044938	261.031748	201.755942	-353.780726	168.052239	214.395925	-310.652950	139.226255	199.600525	-424.871190	-212.858590	946.140383	-228.131620	-4.603488	83.894750	-432.845682	-8.970121	81.079230	-32.355787	
252	1.2600	490.390789	1396.131522	-65.159029	475.079429	1405.250553	-377.802860	432.809618	1463.937058	-218.276630	455.228518	1296.091671	-217.555155	536.454813	1137.059985	34.152601	745.370796	941.745863	-24.510241	548.268114	1152.315062	-453.901785	753.369214	928.407978	-410.669665	-103.120225	1216.766133	-232.696235	91.002391	1205.449315	-408.646132	72.335800	1224.475069	-43.884690	91.063864	1126.788759	-377.422994	73.022735	1163.300112	-81.847804	-70.040677	1263.389286	-188.302909	-60.061546	1259.475883	-269.879648	-5.534846	1151.571843	-25.374409	7.925998	1106.715755	-429.658511	111.314956	1064.232391	3.299412	200.295359	1061.506212	7.422628	274.655317	1017.602968	9.159608	210.899433	1093.929179	-7.850191	395.487028	952.961811	-8.980250	410.658524	943.434053	-133.505709	333.654583	797.472585	-1.533213	318.652368	712.400252	-23.500977	261.094062	645.691842	-33.040938	345.732907	704.710719	-49.500931	203.949850	526.475605	-65.230180	228.730863	547.161240	-151.242670	143.307535	474.092733	-110.762165	451.185494	507.624939	-106.239720	335.066320	473.348832	-39.063057	360.159531	495.193443	-153.216056	76.832938	963.751180	-458.119281	138.005538	902.358049	-464.884606	169.724734	920.800003	-460.651191	162.277473	816.689412	-457.310311	242.335817	712.930974	-446.803446	254.274815	702.391265	-323.692918	154.580524	562.950763	-462.167186	143.181065	481.354344	-442.083662	86.626742	410.389715	-429.196789	172.890240	471.289569	-418.168047	29.291483	298.444774	-403.206451	68.241658	308.352680	-315.466482	-41.124564	264.075877	-352.043565	261.044739	201.760567	-353.777150	168.034148	214.374019	-310.634680	139.228915	199.585260	-424.871093	-212.855320	946.128833	-228.133123	-4.597281	83.888202	-432.849310	-8.961659	81.081460	-32.363211	
253	1.2650	490.407286	1396.104263	-65.167050	475.088043	1405.249874	-377.783534	432.810808	1463.933759	-218.276527	455.227604	1296.080097	-217.548948	536.473990	1137.052665	34.160791	745.364103	941.739264	-24.512806	548.255407	1152.314246	-453.892236	753.368203	928.410335	-410.671362	-103.118202	1216.765543	-232.692029	90.992447	1205.454570	-408.606549	72.337960	1224.467641	-43.883322	91.064387	1126.792893	-377.423954	73.020007	1163.314725	-81.845064	-70.040766	1263.376938	-188.306453	-60.077101	1259.475854	-269.855302	-5.512960	1151.577374	-25.368510	7.927565	1106.715271	-429.653199	111.293668	1064.245571	3.300824	200.312461	1061.507301	7.431221	274.675856	1017.614749	9.164992	210.899522	1093.927298	-7.851927	395.496190	952.966932	-8.975488	410.669396	943.437800	-133.516488	333.654289	797.471908	-1.528583	318.657286	712.394414	-23.491115	261.104759	645.687850	-33.029652	345.744919	704.710917	-49.514578	203.948800	526.472848	-65.228978	228.730916	547.161204	-151.242701	143.290258	474.154503	-110.702837	451.191807	507.625669	-106.239426	335.078309	473.359749	-39.051265	360.167260	495.190656	-153.217021	76.832064	963.751847	-458.117500	138.013810	902.363769	-464.882378	169.720428	920.793191	-460.642205	162.274846	816.686688	-457.297219	242.351630	712.927794	-446.795431	254.275728	702.399828	-323.697338	154.582470	562.965680	-462.173837	143.189285	481.355160	-442.070183	86.638290	410.400335	-429.203627	172.903240	471.283708	-418.170157	29.309632	298.457069	-403.231284	68.057366	308.487427	-315.406230	-41.124211	264.082750	-352.039002	261.051911	201.758302	-353.776291	168.042904	214.385712	-310.644268	139.225815	199.595796	-424.873117	-212.858451	946.142666	-228.124041	-4.600468	83.908605	-432.839556	-8.978888	81.081605	-32.353825	
254	1.2700	490.425764	1396.079590	-65.180806	475.084082	1405.222844	-377.777589	432.812677	1463.913157	-218.254863	455.194962	1296.069008	-217.561578	536.493602	1137.055259	34.164335	745.377522	941.738636	-24.503549	548.247453	1152.318396	-453.878785	753.363520	928.413104	-410.687367	-103.121085	1216.762774	-232.694156	91.028284	1205.480603	-408.661397	72.339947	1224.471543	-43.870967	91.053765	1126.789912	-377.410846	73.049143	1163.277065	-81.877481	-70.040297	1263.377843	-188.291169	-60.070517	1259.486602	-269.845981	-5.532441	1151.558002	-25.352341	7.913942	1106.715809	-429.652555	111.293945	1064.229402	3.309786	200.301689	1061.496577	7.426330	274.673785	1017.603477	9.163364	210.893009	1093.926935	-7.839123	395.490696	952.948734	-8.984116	410.668818	943.442336	-133.532587	333.676258	797.456785	-1.542813	318.662886	712.404966	-23.515818	261.090876	645.691936	-33.027850	345.731573	704.713950	-49.523768	203.943466	526.470974	-65.225375	228.720886	547.175651	-151.236552	143.278694	474.140330	-110.708912	451.185323	507.616419	-106.234260	335.080640	473.342732	-39.066807	360.170479	495.194698	-153.219214	76.829276	963.758001	-458.108105	138.001460	902.362109	-464.879133	169.738727	920.806822	-460.652084	162.283092	816.700371	-457.299425	242.344417	712.934056	-446.809585	254.269178	702.415174	-323.693147	154.588808	562.965794	-462.161932	143.196099	481.368753	-442.100688	86.629662	410.425635	-429.212342	172.896408	471.292681	-418.176991	29.303311	298.442500	-403.209144	68.266971	308.360794	-315.471299	-41.123050	264.099687	-352.047877	261.051576	201.770410	-353.796910	168.034011	214.374058	-310.622390	139.225809	199.595794	-424.873132	-212.855593	946.138739	-228.111752	-4.604301	83.907189	-432.838892	-8.968477	81.079419	-32.359175	
255	1.2750	490.440748	1396.064825	-65.191075	475.079224	1405.214132	-377.782690	432.821067	1463.900753	-218.283260	455.194048	1296.057433	-217.555372	536.531945	1137.046789	34.183411	745.394188	941.735476	-24.486872	548.242210	1152.293872	-453.882682	753.357718	928.421669	-410.694103	-103.117799	1216.767536	-232.678318	91.051045	1205.482475	-408.649247	72.317833	1224.444081	-43.857425	91.053263	1126.805974	-377.411085	73.020460	1163.289131	-81.844344	-70.042255	1263.380679	-188.285823	-60.080972	1259.472244	-269.837630	-5.519574	1151.550570	-25.338013	7.915917	1106.714696	-429.645111	111.316487	1064.218149	3.306350	200.324565	1061.490770	7.420811	274.676924	1017.602461	9.161564	210.907113	1093.920024	-7.850667	395.512280	952.943392	-8.996175	410.658183	943.434265	-133.506239	333.667133	797.471622	-1.528948	318.674487	712.401702	-23.503541	261.098585	645.698122	-33.027844	345.740909	704.714064	-49.528494	203.934005	526.468043	-65.227795	228.732573	547.160876	-151.252302	143.284946	474.155033	-110.710099	451.189823	507.625559	-106.226943	335.064755	473.343800	-39.053429	360.160256	495.189684	-153.213405	76.825788	963.760635	-458.108683	137.998999	902.380687	-464.878535	169.730568	920.812356	-460.656232	162.290672	816.701277	-457.310421	242.337648	712.938090	-446.810663	254.282080	702.403064	-323.704194	154.599502	562.964854	-462.157749	143.197485	481.365358	-442.067563	86.647496	410.411660	-429.204844	172.910529	471.303988	-418.169425	29.303996	298.470499	-403.229982	68.074151	308.496697	-315.431856	-41.118147	264.104471	-352.043606	261.030252	201.754026	-353.792817	168.042260	214.385040	-310.644701	139.229568	199.602731	-424.856810	-212.859821	946.135321	-228.120989	-4.606229	83.907297	-432.849094	-8.976803	81.096346	-32.357105	
256	1.2800	490.440148	1396.049679	-65.205378	475.087165	1405.199236	-377.768169	432.831637	1463.898000	-218.267941	455.213534	1296.060802	-217.579003	536.539268	1137.041373	34.183739	745.387852	941.736460	-24.482559	548.243546	1152.290648	-453.880987	753.356032	928.419938	-410.692269	-103.110661	1216.752779	-232.667303	91.000217	1205.470293	-408.564179	72.344017	1224.449683	-43.861264	91.049083	1126.813953	-377.400142	73.017296	1163.300192	-81.805574	-70.038025	1263.373765	-188.273133	-60.055189	1259.447519	-269.845115	-5.519779	1151.545334	-25.328263	7.914717	1106.712299	-429.645514	111.333939	1064.215002	3.301932	200.321358	1061.488787	7.427632	274.678008	1017.599336	9.165683	210.898104	1093.909427	-7.847928	395.504335	952.951600	-8.985530	410.669051	943.438009	-133.517013	333.670078	797.471253	-1.528786	318.665234	712.402516	-23.531305	261.101365	645.696006	-33.036415	345.731764	704.698903	-49.514647	203.950332	526.478229	-65.237831	228.729694	547.161713	-151.241701	143.329514	474.087271	-110.769506	451.190690	507.616526	-106.227757	335.070252	473.342505	-39.054883	360.166806	495.174855	-153.219747	76.834385	963.764116	-458.095405	138.002043	902.388960	-464.883684	169.733744	920.814022	-460.645406	162.297378	816.699993	-457.298760	242.345172	712.934385	-446.796516	254.281191	702.404721	-323.701068	154.599415	562.964790	-462.157428	143.207505	481.371069	-442.077875	86.648906	410.422789	-429.214128	172.918965	471.304248	-418.165256	29.306819	298.467487	-403.206105	68.280645	308.371511	-315.499290	-41.115758	264.111437	-352.043508	261.045296	201.747360	-353.789187	168.048101	214.375841	-310.638788	139.243674	199.605059	-424.869788	-212.860835	946.142590	-228.117824	-4.596733	83.894155	-432.842362	-8.970181	81.088212	-32.349477	
